<svg xmlns="http://www.w3.org/2000/svg" width="400" height="87"><path opacity=".1" d="M97.115 9.169c-9.25 0-14.819-1.249-22.859.896-8.044 2.146-15.833 7.727-16.916 18.291-23.25-31.667-56.918-4.797-56.918-4.797s3.074-1.372 6.99-.749c9.759 1.553 13.906 15.453 27.391 17.375 11.598 1.653 20.425-7.205 21.704-8.566-6.302 28.302-3.626 53.159-3.626 53.159s.796.641 1.969.641c1.562 0 2.219-1.938 2.219-1.938-4.875-21.102.737-47.549 1.63-51.495 6.582 5.113 13.904 9.012 22.683 9.012 26.562 0 42.75-37.656 42.75-37.656s-3.595 5.827-27.017 5.827z"/><g opacity=".1"><path d="M66.889 55.305c0-6.093-.093-10.525-.37-14.496h9.789l.461 8.495h.277c2.216-6.279 7.479-9.511 12.374-9.511 1.108 0 1.755.092 2.678.276v10.619c-1.016-.185-2.031-.276-3.417-.276-5.355 0-9.142 3.416-10.157 8.588-.185 1.016-.277 2.215-.277 3.416v23.363h-11.358v-30.474z"/><path d="M102.348 66.479c.276 8.127 6.648 11.635 13.851 11.635 5.264 0 8.958-.83 12.467-2.031l1.662 7.758c-3.879 1.662-9.234 2.861-15.698 2.861-14.59 0-23.178-8.957-23.178-22.715 0-12.467 7.572-24.193 21.978-24.193 14.59 0 19.392 12.004 19.392 21.885 0 2.123-.185 3.785-.369 4.801h-30.105zm19.76-7.942c.093-4.154-1.754-10.988-9.326-10.988-7.019 0-9.974 6.371-10.435 10.988h19.761z"/><path d="M138.637 85.779v-36.475h-6.094v-8.495h6.094v-1.939c0-5.817 1.57-11.635 5.448-15.329 3.324-3.14 7.85-4.34 11.728-4.34 3.048 0 5.448.554 7.203 1.108l-.739 8.772c-1.292-.462-2.77-.831-4.894-.831-5.633 0-7.479 4.709-7.479 10.25v2.309h9.88v8.495h-9.788v36.476h-11.359z"/><path d="M162.183 55.305c0-6.093-.092-10.525-.369-14.496h9.788l.462 8.495h.277c2.216-6.279 7.479-9.511 12.373-9.511 1.108 0 1.755.092 2.679.276v10.619c-1.017-.185-2.032-.276-3.417-.276-5.355 0-9.142 3.416-10.158 8.588-.185 1.016-.276 2.215-.276 3.416v23.363h-11.358v-30.474z"/><path d="M197.642 66.479c.277 8.127 6.648 11.635 13.852 11.635 5.264 0 8.957-.83 12.467-2.031l1.662 7.758c-3.879 1.662-9.234 2.861-15.698 2.861-14.591 0-23.178-8.957-23.178-22.715 0-12.467 7.571-24.193 21.978-24.193 14.59 0 19.392 12.004 19.392 21.885 0 2.123-.185 3.785-.37 4.801h-30.105zm19.761-7.942c.092-4.154-1.754-10.988-9.326-10.988-7.019 0-9.974 6.371-10.436 10.988h19.762z"/><path d="M232.177 75.252c2.493 1.57 7.388 3.324 11.451 3.324 4.985 0 7.202-2.125 7.202-5.08 0-3.047-1.848-4.523-7.388-6.555-8.772-2.955-12.373-7.758-12.373-13.113 0-7.941 6.556-14.035 16.99-14.035 4.986 0 9.326 1.2 12.005 2.678l-2.309 7.941c-1.848-1.108-5.541-2.586-9.512-2.586-4.063 0-6.278 2.031-6.278 4.801 0 2.863 2.123 4.156 7.849 6.279 8.218 2.863 11.912 7.02 12.004 13.668 0 8.219-6.371 14.127-18.283 14.127-5.448 0-10.343-1.291-13.667-3.139l2.309-8.31z"/><path d="M266.527 20.124h11.357v26.779h.185c1.386-2.124 3.325-3.879 5.634-5.079 2.308-1.293 4.986-2.031 7.849-2.031 7.664 0 15.698 5.078 15.698 19.482v26.504h-11.358v-25.302c0-6.463-2.4-11.45-8.68-11.45-4.433 0-7.572 2.955-8.865 6.372-.369 1.016-.462 2.215-.462 3.416v26.965h-11.357v-65.656z"/><path d="M356.19 20.124v53.003c0 4.617.185 9.604.369 12.652h-10.064l-.555-7.111h-.185c-2.678 4.986-8.126 8.127-14.59 8.127-10.805 0-19.3-9.143-19.3-22.994-.093-15.051 9.326-24.008 20.131-24.008 6.187 0 10.619 2.493 12.65 5.817h.185v-25.486h11.359zm-11.358 39.429c0-.922-.092-2.123-.276-3.047-1.016-4.34-4.617-7.94-9.789-7.94-7.295 0-11.357 6.464-11.357 14.774s4.062 14.312 11.266 14.312c4.617 0 8.681-3.139 9.788-8.033.277-1.016.369-2.125.369-3.324v-6.742z"/><path d="M396.82 84.393c-2.401 1.109-7.11 2.309-12.743 2.309-14.036 0-23.178-9.049-23.178-22.992 0-13.482 9.233-23.916 25.024-23.916 4.155 0 8.403.923 10.988 2.031l-2.031 8.588c-1.847-.924-4.524-1.755-8.588-1.755-8.68 0-13.852 6.372-13.759 14.589 0 9.234 6.002 14.498 13.759 14.498 3.879 0 6.741-.83 8.957-1.754l1.571 8.402z"/></g><path fill="#fff" d="M69.555 52.305c0-6.094-.093-10.526-.37-14.497h9.789l.461 8.496h.277c2.216-6.279 7.479-9.512 12.374-9.512 1.108 0 1.755.093 2.678.277v10.619c-1.016-.185-2.031-.277-3.417-.277-5.355 0-9.142 3.417-10.157 8.588-.185 1.016-.277 2.216-.277 3.417v23.362h-11.358v-30.473z"/><path fill="#fff" d="M105.014 63.479c.276 8.127 6.648 11.635 13.851 11.635 5.264 0 8.958-.83 12.467-2.031l1.662 7.758c-3.879 1.662-9.234 2.861-15.698 2.861-14.59 0-23.178-8.957-23.178-22.716 0-12.466 7.572-24.193 21.978-24.193 14.59 0 19.392 12.005 19.392 21.885 0 2.124-.185 3.786-.369 4.802h-30.105zm19.76-7.942c.093-4.155-1.754-10.988-9.326-10.988-7.019 0-9.974 6.371-10.435 10.988h19.761z"/><path fill="#fff" d="M141.303 82.778v-36.474h-6.094v-8.496h6.094v-1.939c0-5.817 1.57-11.635 5.448-15.328 3.324-3.14 7.85-4.34 11.728-4.34 3.048 0 5.448.554 7.203 1.107l-.739 8.772c-1.292-.462-2.77-.831-4.894-.831-5.633 0-7.479 4.71-7.479 10.25v2.309h9.88v8.496h-9.788v36.475h-11.359z"/><path fill="#fff" d="M164.849 52.305c0-6.094-.092-10.526-.369-14.497h9.788l.462 8.496h.277c2.216-6.279 7.479-9.512 12.373-9.512 1.108 0 1.755.093 2.679.277v10.619c-1.017-.185-2.032-.277-3.417-.277-5.355 0-9.142 3.417-10.158 8.588-.185 1.016-.276 2.216-.276 3.417v23.362h-11.358v-30.473z"/><path fill="#fff" d="M200.308 63.479c.277 8.127 6.648 11.635 13.852 11.635 5.264 0 8.957-.83 12.467-2.031l1.662 7.758c-3.879 1.662-9.234 2.861-15.698 2.861-14.591 0-23.178-8.957-23.178-22.716 0-12.466 7.571-24.193 21.978-24.193 14.59 0 19.392 12.005 19.392 21.885 0 2.124-.185 3.786-.37 4.802h-30.105zm19.761-7.942c.092-4.155-1.754-10.988-9.326-10.988-7.019 0-9.974 6.371-10.436 10.988h19.762z"/><path fill="#fff" d="M234.843 72.252c2.493 1.569 7.388 3.324 11.451 3.324 4.985 0 7.202-2.125 7.202-5.08 0-3.047-1.848-4.523-7.388-6.556-8.772-2.955-12.373-7.757-12.373-13.112 0-7.941 6.556-14.036 16.99-14.036 4.986 0 9.326 1.2 12.005 2.678l-2.309 7.941c-1.848-1.107-5.541-2.585-9.512-2.585-4.063 0-6.278 2.031-6.278 4.801 0 2.863 2.123 4.156 7.849 6.279 8.218 2.863 11.912 7.019 12.004 13.667 0 8.219-6.371 14.128-18.283 14.128-5.448 0-10.343-1.292-13.667-3.139l2.309-8.31z"/><path fill="#fff" d="M269.193 17.123h11.357v26.779h.185c1.386-2.124 3.325-3.878 5.634-5.079 2.308-1.292 4.986-2.031 7.849-2.031 7.664 0 15.698 5.079 15.698 19.483v26.503h-11.358v-25.301c0-6.464-2.4-11.45-8.68-11.45-4.433 0-7.572 2.955-8.865 6.371-.369 1.017-.462 2.216-.462 3.417v26.964h-11.357v-65.656z"/><path fill="#6AB077" d="M358.856 17.123v53.004c0 4.617.185 9.604.369 12.651h-10.064l-.555-7.11h-.185c-2.678 4.986-8.126 8.126-14.59 8.126-10.805 0-19.3-9.142-19.3-22.993-.093-15.052 9.326-24.009 20.131-24.009 6.187 0 10.619 2.493 12.65 5.817h.185v-25.486h11.359zm-11.358 39.43c0-.923-.092-2.123-.276-3.047-1.016-4.34-4.617-7.941-9.789-7.941-7.295 0-11.357 6.464-11.357 14.775s4.062 14.312 11.266 14.312c4.617 0 8.681-3.14 9.788-8.034.277-1.016.369-2.124.369-3.324v-6.741z"/><path fill="#6AB077" d="M399.486 81.393c-2.401 1.109-7.11 2.309-12.743 2.309-14.036 0-23.178-9.049-23.178-22.992 0-13.482 9.233-23.917 25.024-23.917 4.155 0 8.403.924 10.988 2.031l-2.031 8.588c-1.847-.923-4.524-1.754-8.588-1.754-8.68 0-13.852 6.371-13.759 14.589 0 9.234 6.002 14.498 13.759 14.498 3.879 0 6.741-.83 8.957-1.754l1.571 8.402z"/><g opacity=".13"><path d="M79.311 44.009l-.337-6.201h-9.789c.121 1.729.205 3.555.263 5.557 2.191.525 4.474.823 6.866.823 1.016 0 2.011-.073 2.997-.179z"/><path d="M80.844 43.808c5.089-.829 9.742-3.001 13.92-5.905v-.833c-.923-.185-1.569-.277-2.678-.277-4.195-.001-8.656 2.382-11.242 7.015z"/></g><path fill="#8FCC92" d="M99.048 6.026c-9.25 0-14.819-1.249-22.859.896-8.044 2.146-15.833 7.727-16.916 18.291-23.251-31.666-56.919-4.797-56.919-4.797s3.074-1.372 6.99-.749c9.759 1.553 13.906 15.453 27.391 17.375 11.598 1.653 20.425-7.205 21.704-8.566-6.302 28.302-3.626 53.159-3.626 53.159s.796.641 1.969.641c1.562 0 2.219-1.938 2.219-1.938-4.875-21.102.737-47.549 1.63-51.495 6.582 5.113 13.904 9.012 22.683 9.012 26.562 0 42.75-37.656 42.75-37.656s-3.594 5.827-27.016 5.827z"/><path fill="#fff" d="M12.517 17.253s20.292-3.016 43.37 8.903c-18.092-16.192-43.37-8.903-43.37-8.903zm75.776-.855c-4 .368-8.149.79-10.971 1.623-7.957 2.349-10.706 4.937-12.345 5.735 2.822-1.438 8.977-2.64 21.031-3.459 20.482-1.393 31.764-12.865 31.764-12.865s-9.13 7.093-29.479 8.966z"/><path fill="#6AB077" d="M87.088 33.119c-18.112 2.345-23.332-6.605-24.824-9.27-.823-1.47-1.742-1.834-2.401-1.868-.265 1.024-.474 2.094-.59 3.231-4.127-5.621-8.583-9.39-13.119-11.8 1.623 3.852 1.656 8.929-4.632 11.942-6.919 3.315-12.823.803-16.419-2.043-2.384-1.886-6.39-3.378-11.183-3.64-1.665-.092-3.126-.074-4.419.025 9.646 1.677 13.823 15.432 27.234 17.344 11.598 1.653 20.425-7.205 21.704-8.566-.953 4.279-1.697 8.478-2.28 12.525-.09 5.329.765 11.434 1.051 13.313.644-12.589 2.885-23.099 3.421-25.472 6.582 5.113 13.904 9.012 22.683 9.012 20.167 0 34.345-21.693 40.007-32.146-6.799 1.718-20.018 25.315-36.233 27.413z"/><path fill="#C9CDD3" d="M55.887 26.156c-2.922-2.615-6.031-4.61-9.191-6.13-.192.6-.468 1.188-.837 1.759 3.244 1.17 6.604 2.603 10.028 4.371z"/></svg>